<?xml version="1.0" encoding="iso-8859-1"?>
<!-- Generator: Adobe Illustrator 19.0.0, SVG Export Plug-In . SVG Version: 6.00 Build 0)  -->
<svg xmlns="http://www.w3.org/2000/svg" xmlns:xlink="http://www.w3.org/1999/xlink" version="1.1" id="Capa_1" x="0px" y="0px" viewBox="0 0 512 512" style="enable-background:new 0 0 512 512;" xml:space="preserve">
<path style="fill:#F24F43;" d="M326.247,318.164v29.184c15.058,0.767,27.037,13.489,27.037,29.072  c0,15.582-11.978,28.304-27.037,29.072v19.444H163.425V405.53c-15.728,0-28.479-13.033-28.479-29.109  c0-16.077,12.75-29.109,28.479-29.109v-29.109c-15.728,0-28.479-13.033-28.479-29.109c0-16.077,12.75-29.109,28.479-29.109v-29.109  h162.822v29.147c15.058,0.767,27.037,13.49,27.037,29.072S341.305,317.396,326.247,318.164z M386.79,63.568L244.112,27.109v97.031  l142.677-36.459c5.412-1.383,9.209-6.354,9.209-12.056C395.999,69.922,392.202,64.951,386.79,63.568z"/>
<path style="fill:#ED322E;" d="M353.283,376.42c0,15.582-11.978,28.304-27.037,29.072v19.444h-48.414v-19.444  c15.058-0.768,27.037-13.49,27.037-29.072s-11.978-28.304-27.037-29.072v-29.184c15.058-0.768,27.037-13.49,27.037-29.072  s-11.978-28.304-27.037-29.072v-29.147h48.414v29.147c15.058,0.768,27.037,13.49,27.037,29.072s-11.978,28.304-27.037,29.072v29.184  C341.305,348.115,353.283,360.837,353.283,376.42z"/>
<path style="fill:#8EB55E;" d="M351.891,354.688l-33.881,2.325H136.339c-11.685,0-21.05-10.051-20.297-21.969  c0.01-0.164,0.022-0.328,0.034-0.492c1.441-19.15,16.738-34.521,35.494-35.683c12.289-0.761,23.404,4.463,30.842,13.081  c6.958-8.062,17.134-13.154,28.479-13.154s21.521,5.092,28.479,13.154c6.958-8.062,17.134-13.154,28.479-13.154  c14.301,0,26.749,8.084,33.225,20.021c6.773-12.484,20.077-20.753,35.201-19.97c18.91,0.98,34.427,16.405,35.881,35.701  c0.012,0.165,0.024,0.33,0.034,0.494C372.941,346.962,363.576,354.688,351.891,354.688z"/>
<path style="fill:#5BA14D;" d="M351.891,357.013H315.4c11.686,0,21.051-10.052,20.297-21.972c-0.01-0.164-0.022-0.329-0.034-0.494  c-1.004-13.329-8.72-24.807-19.627-30.957c5.955-3.349,12.877-5.125,20.237-4.744c18.91,0.98,34.427,16.405,35.881,35.701  c0.012,0.165,0.024,0.33,0.034,0.494C372.941,346.962,363.576,357.013,351.891,357.013z"/>
<path style="fill:#FBB03B;" d="M353.283,434.61v0.056c0,16.061-12.748,29.081-28.475,29.081H163.421  c-15.726,0-28.475-13.02-28.475-29.081v-0.056c0-16.061,12.749-29.081,28.475-29.081h161.388  C340.535,405.529,353.283,418.549,353.283,434.61z M324.805,201.764h-161.38c-15.728,0-28.479,13.033-28.479,29.109l0,0  c0,16.077,12.75,29.109,28.479,29.109h93.98v29.109c0,10.718,8.5,19.406,18.986,19.406c3.462,0,6.698-0.963,9.493-2.617v12.32  c0,10.718,8.5,19.406,18.986,19.406s18.986-8.688,18.986-19.406v-58.218h0.949c15.728,0,28.479-13.033,28.479-29.109l0,0  C353.283,214.797,340.533,201.764,324.805,201.764z"/>
<path style="fill:#F99A1E;" d="M353.283,434.638c0,16.077-12.75,29.109-28.479,29.109h-27.037c15.728,0,28.479-13.033,28.479-29.109  s-12.75-29.109-28.479-29.109h27.037C340.533,405.529,353.283,418.561,353.283,434.638z M323.855,318.201v-58.218h0.949  c15.728,0,28.479-13.033,28.479-29.109s-12.75-29.109-28.479-29.109h-27.037c15.728,0,28.479,13.033,28.479,29.109  s-12.75,29.109-28.479,29.109h-0.949v58.218c0,5.308-2.089,10.114-5.467,13.617c3.443,3.571,8.226,5.789,13.518,5.789  C315.355,337.607,323.855,328.919,323.855,318.201z"/>
<path style="fill:#D59A4C;" d="M122.943,213.468c-1.466-6.93-2.236-14.086-2.236-21.407c0-7.32,0.771-14.476,2.236-21.406  c0.949-4.485,4.806-7.703,9.295-7.703h223.753c4.489,0,8.346,3.218,9.295,7.703c1.466,6.93,2.236,14.086,2.236,21.406  c0,7.321-0.771,14.476-2.236,21.407c-0.949,4.485-4.806,7.703-9.295,7.703H132.238C127.749,221.171,123.892,217.953,122.943,213.468  z M355.991,446.282H132.238c-4.489,0-8.346,3.217-9.295,7.702c-1.466,6.93-2.236,14.086-2.236,21.407  c0,7.32,0.771,14.476,2.236,21.407c0.949,4.485,4.806,7.702,9.295,7.702h223.753c4.489,0,8.346-3.218,9.295-7.702  c1.466-6.93,2.236-14.086,2.236-21.407s-0.771-14.476-2.236-21.407C364.338,449.499,360.481,446.282,355.991,446.282z"/>
<path style="fill:#BC8544;" d="M365.286,453.984c1.466,6.93,2.236,14.086,2.236,21.407c0,7.32-0.771,14.476-2.236,21.407  c-0.949,4.485-4.806,7.702-9.295,7.702h-31.783c4.489,0,8.346-3.218,9.295-7.702c1.466-6.93,2.236-14.086,2.236-21.407  s-0.771-14.476-2.236-21.407c-0.949-4.485-4.806-7.702-9.295-7.702h31.783C360.481,446.282,364.338,449.499,365.286,453.984z   M324.208,221.171h31.783c4.489,0,8.346-3.218,9.295-7.703c1.466-6.93,2.236-14.086,2.236-21.407c0-7.32-0.771-14.476-2.236-21.407  c-0.949-4.485-4.806-7.702-9.295-7.702h-31.783c4.489,0,8.346,3.218,9.295,7.702c1.466,6.93,2.236,14.086,2.236,21.407  s-0.771,14.476-2.236,21.407C332.555,217.953,328.698,221.171,324.208,221.171z"/>
<path d="M160.482,473.438v0.971c0,4.143-3.358,7.5-7.5,7.5s-7.5-3.357-7.5-7.5v-0.971c0-4.143,3.358-7.5,7.5-7.5  S160.482,469.295,160.482,473.438z M285.883,481.908c4.142,0,7.5-3.357,7.5-7.5v-0.971c0-4.143-3.358-7.5-7.5-7.5  s-7.5,3.357-7.5,7.5v0.971C278.383,478.551,281.741,481.908,285.883,481.908z M342.841,490.645c4.142,0,7.5-3.357,7.5-7.5v-0.971  c0-4.143-3.358-7.5-7.5-7.5s-7.5,3.357-7.5,7.5v0.971C335.341,487.287,338.699,490.645,342.841,490.645z M181.46,465.938  c-4.142,0-7.5,3.357-7.5,7.5v0.971c0,4.143,3.358,7.5,7.5,7.5s7.5-3.357,7.5-7.5v-0.971  C188.96,469.295,185.603,465.938,181.46,465.938z M403.499,75.449c0,9.145-6.107,17.092-14.852,19.328l-137.033,35.03v25.505  h104.377c7.965,0,14.961,5.743,16.632,13.655c1.591,7.526,2.398,15.254,2.398,22.966s-0.807,15.439-2.398,22.967  c-1.333,6.311-6.053,11.241-11.951,12.979c0.073,0.957,0.11,1.918,0.11,2.883c0,11.861-5.57,22.425-14.186,29.121  c8.616,6.697,14.186,17.26,14.186,29.121c0,3.406-0.448,6.73-1.337,9.939c11.313,7.668,19.086,20.362,20.187,34.971l0.04,0.571  c0.493,7.802-2.277,15.52-7.598,21.188c-3.685,3.925-8.417,6.672-13.541,7.957c1.476,4.05,2.25,8.363,2.25,12.737  c0,11.861-5.57,22.424-14.186,29.121c8.616,6.696,14.186,17.26,14.186,29.121c0,1.606-0.101,3.198-0.301,4.77  c5.987,1.687,10.794,6.655,12.142,13.034c1.591,7.526,2.398,15.254,2.398,22.966s-0.807,15.439-2.398,22.967  c-1.672,7.911-8.667,13.654-16.632,13.654H132.237c-7.965,0-14.961-5.743-16.632-13.655c-1.591-7.526-2.398-15.254-2.398-22.966  s0.807-15.439,2.398-22.967c1.348-6.378,6.155-11.347,12.142-13.033c-0.201-1.571-0.301-3.163-0.301-4.77  c0-11.861,5.57-22.425,14.186-29.121c-8.616-6.697-14.186-17.26-14.186-29.121c0-4.374,0.774-8.688,2.249-12.737  c-5.123-1.285-9.856-4.032-13.54-7.957c-5.321-5.667-8.09-13.384-7.599-21.171l0.042-0.598c1.094-14.552,8.879-27.257,20.191-34.941  c-0.893-3.215-1.343-6.546-1.343-9.959c0-11.861,5.57-22.424,14.186-29.121c-8.616-6.696-14.186-17.26-14.186-29.121  c0-0.965,0.037-1.927,0.11-2.883c-5.898-1.738-10.618-6.669-11.951-12.979c-1.591-7.526-2.398-15.254-2.398-22.966  s0.807-15.439,2.398-22.967c1.672-7.911,8.667-13.654,16.632-13.654h104.377V124.23c-0.006-0.168-0.006-0.335,0-0.501V27.17  c-0.006-0.166-0.006-0.333,0-0.501V7.5c0-4.143,3.358-7.5,7.5-7.5s7.5,3.357,7.5,7.5v13.591l137.033,35.03  C397.392,58.357,403.499,66.305,403.499,75.449z M211.066,453.758c-4.142,0-7.5-3.357-7.5-7.5s3.358-7.5,7.5-7.5H345.4  c0.255-1.355,0.383-2.741,0.383-4.148c0-11.922-9.411-21.621-20.979-21.621h-161.38c-11.567,0-20.979,9.699-20.979,21.621  c0,1.407,0.128,2.793,0.383,4.148h40.707c4.142,0,7.5,3.357,7.5,7.5s-3.358,7.5-7.5,7.5h-51.299c-0.934,0-1.738,0.723-1.957,1.757  c-1.376,6.51-2.074,13.192-2.074,19.864s0.698,13.354,2.074,19.863c0.219,1.035,1.023,1.758,1.957,1.758h223.755  c0.934,0,1.738-0.723,1.957-1.757c1.376-6.51,2.074-13.192,2.074-19.864s-0.698-13.354-2.074-19.863  c-0.219-1.035-1.023-1.758-1.957-1.758H211.066z M335.884,306.252c-1.518-0.077-3.032-0.044-4.529,0.104v11.77  c0,14.841-11.881,26.914-26.486,26.914c-14.605,0-26.486-12.073-26.486-26.914v-2.284c-0.662,0.052-1.327,0.077-1.993,0.077  c-7.313,0-13.943-3.027-18.741-7.913c-4.826,1.755-9.13,4.739-12.603,8.765c-1.425,1.651-3.498,2.601-5.679,2.601  s-4.254-0.949-5.679-2.601c-5.789-6.71-14.099-10.559-22.8-10.559s-17.012,3.849-22.8,10.559c-1.424,1.651-3.498,2.601-5.679,2.601  s-4.254-0.949-5.679-2.601c-6.261-7.258-15.259-11.084-24.699-10.5c-15.072,0.935-27.315,13.306-28.479,28.775l-0.028,0.397  c-0.235,3.729,1.031,7.265,3.564,9.964c2.45,2.609,5.735,4.047,9.248,4.047h86.673c4.142,0,7.5,3.357,7.5,7.5s-3.358,7.5-7.5,7.5  h-77.094c-2.252,3.515-3.472,7.663-3.472,11.914c0,11.922,9.411,21.621,20.979,21.621h161.381c11.567,0,20.979-9.699,20.979-21.621  c0-4.251-1.22-8.399-3.472-11.914h-91.534c-4.142,0-7.5-3.357-7.5-7.5s3.358-7.5,7.5-7.5h101.113c3.513,0,6.797-1.438,9.248-4.047  c2.534-2.699,3.8-6.236,3.565-9.961l-0.029-0.415C363.498,319.418,351.121,307.042,335.884,306.252z M249.904,289.004v-21.621  h-86.48c-11.567,0-20.979,9.699-20.979,21.621c0,1.229,0.097,2.439,0.29,3.626c2.704-0.701,5.503-1.153,8.369-1.331  c0.949-0.059,1.896-0.088,2.838-0.088c10.474,0,20.442,3.607,28.477,10.216c8.017-6.562,18.047-10.216,28.47-10.216  c10.421,0,20.451,3.654,28.468,10.215c3.387-2.788,7.13-5.048,11.144-6.73C250.11,292.86,249.904,290.956,249.904,289.004z   M334.305,291.211c0.784,0,1.568,0.021,2.354,0.061c3.031,0.157,5.984,0.618,8.834,1.354c0.193-1.185,0.29-2.394,0.29-3.622  c0-9.565-6.059-17.699-14.428-20.542v22.845C332.336,291.243,333.319,291.211,334.305,291.211z M132.237,170.313  c-0.934,0-1.738,0.723-1.957,1.757c-1.376,6.51-2.074,13.192-2.074,19.864s0.698,13.354,2.074,19.863  c0.219,1.035,1.023,1.758,1.957,1.758h157.224c4.142,0,7.5,3.357,7.5,7.5s-3.358,7.5-7.5,7.5H142.553  c-0.071,0.73-0.107,1.467-0.107,2.207c0,11.922,9.411,21.621,20.979,21.621h93.98c4.142,0,7.5,3.357,7.5,7.5v29.121  c0,6.569,5.152,11.914,11.486,11.914c2.002,0,3.911-0.528,5.671-1.571c1.178-0.697,2.5-1.047,3.822-1.047  c1.281,0,2.562,0.328,3.714,0.984c2.341,1.334,3.786,3.821,3.786,6.516v12.325c0,6.569,5.152,11.914,11.486,11.914  c6.333,0,11.486-5.345,11.486-11.914v-58.242c0-4.143,3.358-7.5,7.5-7.5h0.949c11.567,0,20.979-9.699,20.979-21.621  c0-0.74-0.036-1.477-0.107-2.207h-31.296c-4.142,0-7.5-3.357-7.5-7.5s3.358-7.5,7.5-7.5h41.612c0.934,0,1.738-0.723,1.957-1.757  c1.376-6.51,2.074-13.192,2.074-19.864s-0.698-13.354-2.074-19.863c-0.219-1.035-1.023-1.758-1.957-1.758L132.237,170.313  L132.237,170.313z M388.499,75.449c0-2.286-1.467-4.259-3.567-4.795L251.614,36.573v77.752l133.318-34.081  C387.032,79.707,388.499,77.735,388.499,75.449z M228.925,190.697c4.142,0,7.5-3.357,7.5-7.5v-0.971c0-4.143-3.358-7.5-7.5-7.5  s-7.5,3.357-7.5,7.5v0.971C221.425,187.34,224.783,190.697,228.925,190.697z M143.489,199.434c4.142,0,7.5-3.357,7.5-7.5v-0.971  c0-4.143-3.358-7.5-7.5-7.5s-7.5,3.357-7.5,7.5v0.971C135.989,196.076,139.346,199.434,143.489,199.434z M209.94,209.141  c4.142,0,7.5-3.357,7.5-7.5v-0.971c0-4.143-3.358-7.5-7.5-7.5s-7.5,3.357-7.5,7.5v0.971  C202.44,205.783,205.797,209.141,209.94,209.141z M342.841,209.141c4.142,0,7.5-3.357,7.5-7.5v-0.971c0-4.143-3.358-7.5-7.5-7.5  s-7.5,3.357-7.5,7.5v0.971C335.341,205.783,338.699,209.141,342.841,209.141z"/>
<g>
</g>
<g>
</g>
<g>
</g>
<g>
</g>
<g>
</g>
<g>
</g>
<g>
</g>
<g>
</g>
<g>
</g>
<g>
</g>
<g>
</g>
<g>
</g>
<g>
</g>
<g>
</g>
<g>
</g>
</svg>
