<?xml version="1.0" encoding="iso-8859-1"?>
<!-- Generator: Adobe Illustrator 19.0.0, SVG Export Plug-In . SVG Version: 6.00 Build 0)  -->
<svg xmlns="http://www.w3.org/2000/svg" xmlns:xlink="http://www.w3.org/1999/xlink" version="1.1" id="Capa_1" x="0px" y="0px" viewBox="0 0 512 512" style="enable-background:new 0 0 512 512;" xml:space="preserve">
<path style="fill:#A4E0F7;" d="M298.711,107.328v37.133h-77.656v-37.133c0-21.444,17.384-38.828,38.828-38.828l0,0  C281.327,68.5,298.711,85.884,298.711,107.328z"/>
<path style="fill:#C1E9FD;" d="M492.366,326.192v106.731H19.634V326.192c0-110.457,89.543-200,200-200h72.732  C402.823,126.192,492.366,215.735,492.366,326.192z"/>
<path style="fill:#A4E0F7;" d="M492.366,318.5v114.423H463.73V318.5c0-106.209-86.92-192.308-194.141-192.308h28.636  C405.447,126.192,492.366,212.291,492.366,318.5z"/>
<path style="fill:#F24F43;" d="M134.662,313.692c0,13.276-10.865,24.038-24.268,24.038s-24.268-10.762-24.268-24.038  s10.865-24.038,24.268-24.038S134.662,300.416,134.662,313.692z M256,289.654c-13.403,0-24.268,10.762-24.268,24.038  S242.597,337.73,256,337.73c13.403,0,24.268-10.762,24.268-24.038S269.403,289.654,256,289.654z M401.605,289.654  c-13.403,0-24.268,10.762-24.268,24.038s10.865,24.038,24.268,24.038s24.268-10.762,24.268-24.038  C425.873,300.416,415.008,289.654,401.605,289.654z"/>
<path style="fill:#FEC76B;" d="M168.637,347.346v48.077c0,10.621-8.692,19.231-19.414,19.231h-0.546v8.654H72.112v-8.654h-0.546  c-10.722,0-19.414-8.61-19.414-19.231v-48.077c0-10.621,8.692-19.231,19.414-19.231h77.656  C159.945,328.115,168.637,336.725,168.637,347.346z M440.434,328.115h-77.656c-10.722,0-19.414,8.61-19.414,19.231v48.077  c0,10.621,8.692,19.231,19.414,19.231h0.546v8.654h76.564v-8.654h0.546c10.722,0,19.414-8.61,19.414-19.231v-48.077  C459.848,336.725,451.156,328.115,440.434,328.115z M294.828,328.115h-77.656c-10.722,0-19.414,8.61-19.414,19.231v48.077  c0,10.621,8.692,19.231,19.414,19.231h0.546v8.654h76.564v-8.654h0.546c10.722,0,19.414-8.61,19.414-19.231v-48.077  C314.242,336.725,305.55,328.115,294.828,328.115z"/>
<path style="fill:#FBB03B;" d="M168.637,347.346v48.077c0,10.621-8.692,19.231-19.414,19.231h-25.238  c10.722,0,19.414-8.61,19.414-19.231v-48.077c0-10.621-8.692-19.231-19.414-19.231h25.238  C159.945,328.115,168.637,336.725,168.637,347.346z M294.828,328.115H269.59c10.722,0,19.414,8.61,19.414,19.231v48.077  c0,10.621-8.692,19.231-19.414,19.231h25.238c10.722,0,19.414-8.61,19.414-19.231v-48.077  C314.242,336.725,305.55,328.115,294.828,328.115z M440.434,328.115h-25.238c10.722,0,19.414,8.61,19.414,19.231v48.077  c0,10.621-8.692,19.231-19.414,19.231h25.238c10.722,0,19.414-8.61,19.414-19.231v-48.077  C459.848,336.725,451.156,328.115,440.434,328.115z"/>
<path style="fill:#D59A4C;" d="M504.5,424.654v8.846c0,5.523-4.477,10-10,10h-477c-5.523,0-10-4.477-10-10v-8.846  c0-5.523,4.477-10,10-10h477C500.023,414.654,504.5,419.131,504.5,424.654z"/>
<path style="fill:#BC8544;" d="M504.5,424.269v9.615c0,5.31-4.346,9.615-9.707,9.615H463.73v-28.846h31.063  C500.154,414.654,504.5,418.959,504.5,424.269z"/>
<path d="M234.379,351.673v0.962c0,4.142-3.358,7.5-7.5,7.5s-7.5-3.358-7.5-7.5v-0.962c0-4.142,3.358-7.5,7.5-7.5  S234.379,347.531,234.379,351.673z M280.268,348.5c-4.143,0-7.5,3.358-7.5,7.5v0.961c0,4.142,3.357,7.5,7.5,7.5s7.5-3.358,7.5-7.5  V356C287.768,351.858,284.41,348.5,280.268,348.5z M259.883,377.346c-4.142,0-7.5,3.358-7.5,7.5v0.961c0,4.142,3.358,7.5,7.5,7.5  c4.143,0,7.5-3.358,7.5-7.5v-0.961C267.383,380.704,264.025,377.346,259.883,377.346z M73.773,351.673v0.962  c0,4.142,3.358,7.5,7.5,7.5s7.5-3.358,7.5-7.5v-0.962c0-4.142-3.358-7.5-7.5-7.5S73.773,347.531,73.773,351.673z M144.774,188.816  c16.478-12.973,60.136-21.355,111.226-21.355c51.089,0,94.747,8.382,111.225,21.355c1.375,1.083,3.011,1.607,4.635,1.607  c2.22,0,4.418-0.981,5.897-2.861c2.563-3.254,2.001-7.97-1.253-10.532c-41.672-32.806-199.339-32.806-241.008,0  c-3.255,2.563-3.816,7.278-1.254,10.532C136.805,190.817,141.521,191.377,144.774,188.816z M127.162,386.769  c0,4.142,3.358,7.5,7.5,7.5s7.5-3.358,7.5-7.5v-0.961c0-4.142-3.358-7.5-7.5-7.5s-7.5,3.358-7.5,7.5V386.769z M425.873,378.308  c-4.143,0-7.5,3.358-7.5,7.5v0.961c0,4.142,3.357,7.5,7.5,7.5s7.5-3.358,7.5-7.5v-0.961  C433.373,381.666,430.016,378.308,425.873,378.308z M120.102,358.115c-4.142,0-7.5,3.358-7.5,7.5v0.962c0,4.142,3.358,7.5,7.5,7.5  s7.5-3.358,7.5-7.5v-0.962C127.602,361.473,124.244,358.115,120.102,358.115z M418.813,365.615c0-4.142-3.357-7.5-7.5-7.5  s-7.5,3.358-7.5,7.5v0.962c0,4.142,3.357,7.5,7.5,7.5s7.5-3.358,7.5-7.5V365.615z M512,424.269v9.616  c0,9.438-7.719,17.115-17.207,17.115h-69.891c-4.143,0-7.5-3.358-7.5-7.5s3.357-7.5,7.5-7.5h69.891c1.217,0,2.207-0.949,2.207-2.115  v-9.616c0-1.167-0.99-2.115-2.207-2.115H123.985c-4.142,0-7.5-3.358-7.5-7.5s3.358-7.5,7.5-7.5h25.238  c6.569,0,11.914-5.263,11.914-11.731v-48.077c0-6.468-5.345-11.731-11.914-11.731H71.566c-6.569,0-11.914,5.263-11.914,11.731  v48.077c0,6.468,5.345,11.731,11.914,11.731h23.296c4.142,0,7.5,3.358,7.5,7.5s-3.358,7.5-7.5,7.5H17.207  c-1.217,0-2.207,0.949-2.207,2.115v9.616c0,1.167,0.99,2.115,2.207,2.115h378.574c4.143,0,7.5,3.358,7.5,7.5s-3.357,7.5-7.5,7.5  H17.207C7.719,451,0,443.322,0,433.885v-9.616c0-7.682,5.114-14.198,12.134-16.356V318.5c0-35.202,9.368-69.815,27.091-100.098  c17.187-29.367,41.818-54.099,71.23-71.521c3.563-2.111,8.165-0.934,10.275,2.63c2.111,3.563,0.934,8.164-2.63,10.275  C61.99,193.023,27.134,253.839,27.134,318.5v88.654h20.251c-1.75-3.543-2.733-7.525-2.733-11.731v-48.077  c0-14.74,12.074-26.731,26.914-26.731h7.829c-0.509-2.254-0.768-4.573-0.768-6.923c0-14.91,10.475-27.437,24.502-30.707  c1.021-14.401,5.337-27.816,12.409-38.324c8.767-13.026,20.729-20.2,33.684-20.2c4.142,0,7.5,3.358,7.5,7.5s-3.358,7.5-7.5,7.5  c-15.601,0-28.978,19.398-31.05,43.648c13.769,3.453,23.989,15.855,23.989,30.583c0,2.35-0.259,4.668-0.768,6.923h7.829  c14.84,0,26.914,11.991,26.914,26.731v48.077c0,4.206-0.983,8.188-2.732,11.731h19.586c-1.75-3.543-2.733-7.525-2.733-11.731  v-48.077c0-14.74,12.074-26.731,26.914-26.731H225c-0.508-2.254-0.768-4.573-0.768-6.923c0-14.91,10.475-27.437,24.502-30.707  c1.021-14.401,5.337-27.816,12.409-38.324c8.768-13.026,20.729-20.2,33.685-20.2c4.143,0,7.5,3.358,7.5,7.5s-3.357,7.5-7.5,7.5  c-15.601,0-28.978,19.398-31.05,43.648c13.769,3.453,23.989,15.855,23.989,30.583c0,2.35-0.26,4.668-0.768,6.923h7.828  c14.841,0,26.914,11.991,26.914,26.731v48.077c0,4.206-0.982,8.188-2.732,11.731h19.586c-1.75-3.543-2.732-7.525-2.732-11.731  v-48.077c0-14.74,12.073-26.731,26.914-26.731h7.828c-0.508-2.254-0.768-4.573-0.768-6.923c0-14.91,10.475-27.437,24.503-30.707  c1.021-14.401,5.336-27.816,12.408-38.324c8.768-13.026,20.729-20.2,33.685-20.2c4.143,0,7.5,3.358,7.5,7.5s-3.357,7.5-7.5,7.5  c-15.601,0-28.978,19.398-31.05,43.648c13.77,3.453,23.989,15.855,23.989,30.583c0,2.35-0.26,4.668-0.768,6.923h7.828  c14.841,0,26.914,11.991,26.914,26.731v48.077c0,4.206-0.982,8.188-2.732,11.731h20.251V318.5  c0-101.903-83.727-184.808-186.641-184.808h-84.451c-25.088,0-49.43,4.843-72.349,14.396c-3.822,1.594-8.215-0.214-9.808-4.038  s0.214-8.214,4.038-9.808c24.69-10.291,50.897-15.521,77.9-15.55v-11.731c0-25.343,20.783-45.961,46.328-45.961  c25.546,0,46.328,20.618,46.328,45.961v11.886c107.499,4.168,193.655,92.128,193.655,199.653v89.413  C506.886,410.071,512,416.587,512,424.269z M291.211,106.961c0-17.072-14.054-30.961-31.328-30.961s-31.328,13.889-31.328,30.961  v11.731h62.656V106.961z M127.162,313.692c0-9.119-7.522-16.539-16.768-16.539s-16.768,7.419-16.768,16.539  c0,2.415,0.525,4.768,1.534,6.923h30.468C126.637,318.46,127.162,316.107,127.162,313.692z M239.232,313.692  c0,2.416,0.525,4.768,1.534,6.923h30.467c1.009-2.156,1.534-4.508,1.534-6.923c0-9.119-7.521-16.539-16.768-16.539  C246.754,297.154,239.232,304.573,239.232,313.692z M306.742,347.346c0-6.468-5.345-11.731-11.914-11.731h-77.656  c-6.569,0-11.914,5.263-11.914,11.731v48.077c0,6.468,5.345,11.731,11.914,11.731h77.656c6.569,0,11.914-5.263,11.914-11.731  V347.346z M384.838,313.692c0,2.415,0.525,4.768,1.534,6.923h30.467c1.009-2.156,1.534-4.508,1.534-6.923  c0-9.119-7.521-16.539-16.768-16.539S384.838,304.573,384.838,313.692z M452.348,347.346c0-6.468-5.345-11.731-11.914-11.731  h-77.656c-6.569,0-11.914,5.263-11.914,11.731v48.077c0,6.468,5.345,11.731,11.914,11.731h77.656  c6.569,0,11.914-5.263,11.914-11.731V347.346z"/>
<g>
</g>
<g>
</g>
<g>
</g>
<g>
</g>
<g>
</g>
<g>
</g>
<g>
</g>
<g>
</g>
<g>
</g>
<g>
</g>
<g>
</g>
<g>
</g>
<g>
</g>
<g>
</g>
<g>
</g>
</svg>
