<?xml version="1.0" encoding="iso-8859-1"?>
<!-- Generator: Adobe Illustrator 19.0.0, SVG Export Plug-In . SVG Version: 6.00 Build 0)  -->
<svg xmlns="http://www.w3.org/2000/svg" xmlns:xlink="http://www.w3.org/1999/xlink" version="1.1" id="Capa_1" x="0px" y="0px" viewBox="0 0 512 512" style="enable-background:new 0 0 512 512;" xml:space="preserve">
<path style="fill:#50757C;" d="M306.758,195.973c5.742,3.519,9.25,9.814,9.25,16.603v272.51c0,10.722-8.597,19.414-19.202,19.414  H189.274c-10.605,0-19.202-8.692-19.202-19.414v-272.51c0-6.789,3.507-13.084,9.25-16.603l38.275-23.453V65.742h50.885V172.52  L306.758,195.973z"/>
<path style="fill:#506568;" d="M316.007,212.576v272.51c0,10.722-8.597,19.414-19.202,19.414h-3.07  c1.638-2.858,2.59-6.167,2.59-9.707v-272.51c0-6.789-3.507-13.084-9.25-16.603l-33.651-20.619c-2.871-1.759-4.625-4.907-4.625-8.301  V75.449h-7.681v-9.707h27.363V172.52l38.275,23.453C312.5,199.491,316.007,205.787,316.007,212.576z"/>
<path style="fill:#F24F43;" d="M316.007,250.176v165.02H170.072v-165.02L316.007,250.176L316.007,250.176z M217.369,114.277h51.341  c2.658,0,4.813-2.173,4.813-4.854v-97.07c0-2.681-2.155-4.854-4.813-4.854h-51.341c-2.658,0-4.813,2.173-4.813,4.854v97.07  C212.556,112.104,214.711,114.277,217.369,114.277z"/>
<path style="fill:#ED322E;" d="M316.007,250.176v165.02h-19.683v-165.02L316.007,250.176L316.007,250.176z M268.722,7.5h-19.916  v106.777h19.916c2.651,0,4.801-2.173,4.801-4.854v-97.07C273.523,9.673,271.373,7.5,268.722,7.5z"/>
<path style="fill:#A4E0F7;" d="M448.501,502.559c0,0.653-0.072,1.299-0.177,1.941H304.663c-0.105-0.642-0.177-1.288-0.177-1.941  c0-13.718,23.46-25.213,55.034-28.3V345.726c-33.906-7.217-58.314-39.369-54.674-75.742l11.47-114.614h115.212l11.47,114.614  c3.64,36.373-20.768,68.525-54.674,75.742v128.109C422.461,476.118,448.501,488.106,448.501,502.559z"/>
<path style="fill:#C1E9FD;" d="M304.846,269.984l11.47-114.614h89.866l11.47,114.614c3.641,36.379-20.779,68.525-54.693,75.735  c-1.125,0.239-2.295,0.239-3.42,0C325.624,338.51,301.205,306.363,304.846,269.984z"/>
<path style="fill:#8EB55E;" d="M226.718,415.48v13.02c0,41.974-34.026,76-76,76h-11.217c-41.974,0-76-34.026-76-76v-89.02h87.217  C192.692,339.48,226.718,373.507,226.718,415.48z"/>
<path d="M170.072,327.081c4.143,0,7.5-3.358,7.5-7.5v-61.905h103.392c4.143,0,7.5-3.358,7.5-7.5s-3.357-7.5-7.5-7.5H177.572v-30.1  c0-4.154,2.172-8.065,5.668-10.208l38.275-23.454c2.225-1.364,3.581-3.786,3.581-6.395v-50.742h35.886v50.742  c0,2.609,1.356,5.032,3.581,6.395l18.353,11.246c3.533,2.164,8.15,1.055,10.313-2.477c2.165-3.532,1.056-8.149-2.476-10.313  l-14.771-9.051v-49.018c3.057-2.281,5.04-5.925,5.04-10.024V12.5c0-6.893-5.607-12.5-12.5-12.5h-50.966  c-6.893,0-12.5,5.607-12.5,12.5v96.777c0,4.099,1.983,7.743,5.04,10.024v49.018l-34.694,21.259  c-7.914,4.85-12.83,13.662-12.83,22.998v107.005C162.572,323.723,165.93,327.081,170.072,327.081z M220.057,15h45.966v91.777  h-45.966V15z M198.875,271.797c4.143,0,7.5,3.358,7.5,7.5v38.828c0,4.142-3.357,7.5-7.5,7.5s-7.5-3.358-7.5-7.5v-38.828  C191.375,275.155,194.732,271.797,198.875,271.797z M150.718,331.98H63.501c-4.143,0-7.5,3.358-7.5,7.5v89.02  c0,46.042,37.458,83.5,83.5,83.5h11.217c20.374,0,39.068-7.336,53.579-19.503l14.941,15.106c2.913,2.947,7.662,2.971,10.606,0.059  c2.944-2.913,2.971-7.662,0.058-10.606l-15.016-15.182c12.065-14.481,19.331-33.094,19.331-53.373v-13.02  C234.218,369.438,196.76,331.98,150.718,331.98z M219.218,428.5c0,16.112-5.59,30.941-14.935,42.652l-16.15-16.329v-37.098  c0-4.142-3.357-7.5-7.5-7.5s-7.5,3.358-7.5,7.5v21.932l-21.889-22.13v-27.562c0-4.142-3.357-7.5-7.5-7.5s-7.5,3.358-7.5,7.5v12.396  l-40.528-40.976c-2.914-2.947-7.663-2.97-10.606-0.059c-2.944,2.913-2.971,7.662-0.058,10.606l40.697,41.147h-15.411  c-4.143,0-7.5,3.358-7.5,7.5s3.357,7.5,7.5,7.5h30.247l22.084,22.328h-25.881c-4.143,0-7.5,3.358-7.5,7.5s3.357,7.5,7.5,7.5h40.717  l16.204,16.384C181.947,491.299,166.984,497,150.718,497h-11.217c-37.771,0-68.5-30.729-68.5-68.5v-81.52h79.717  c37.771,0,68.5,30.729,68.5,68.5L219.218,428.5L219.218,428.5z M430.222,475.014c-9.736-3.938-21.56-6.686-34.398-8.062V351.517  c13.269-3.989,25.389-11.558,34.881-22.048c14.755-16.304,21.955-38.258,19.757-60.232l-11.471-114.614  c-0.384-3.833-3.61-6.753-7.463-6.753H316.315c-3.853,0-7.079,2.919-7.463,6.753l-11.47,114.614  c-2.199,21.974,5.001,43.927,19.755,60.231c9.493,10.49,21.614,18.06,34.883,22.049v116.067c-10.533,1.464-20.25,3.877-28.514,7.133  V351.776c0-4.142-3.357-7.5-7.5-7.5s-7.5,3.358-7.5,7.5v55.919h-51.065c-4.143,0-7.5,3.358-7.5,7.5s3.357,7.5,7.5,7.5h51.065v60.135  c-5.568,4.207-9.208,9-10.722,14.17h-48.763c-4.143,0-7.5,3.358-7.5,7.5s3.357,7.5,7.5,7.5h199.302c3.678,0,6.813-2.667,7.402-6.296  c0.185-1.134,0.274-2.163,0.274-3.145C456.001,491.519,446.846,481.737,430.222,475.014z M328.26,319.404  c-11.915-13.167-17.729-30.908-15.951-48.673l10.794-107.86h101.638l10.795,107.86c1.777,17.765-4.037,35.506-15.953,48.673  c-11.87,13.118-28.086,20.342-45.66,20.342C356.347,339.746,340.131,332.522,328.26,319.404z M380.823,354.431v111.557  c-4.599-0.107-9.264-0.041-13.803,0.189V354.431C371.593,354.85,376.251,354.85,380.823,354.431z M314.841,497  c7.624-7.814,30.05-16.063,61.652-16.063c31.604,0,54.029,8.249,61.653,16.063H314.841z M374.393,318.125c0,4.142-3.357,7.5-7.5,7.5  c-22.664,0-41.104-18.605-41.104-41.475c0-4.142,3.357-7.5,7.5-7.5s7.5,3.358,7.5,7.5c0,14.598,11.71,26.475,26.104,26.475  C371.035,310.625,374.393,313.983,374.393,318.125z"/>
<g>
</g>
<g>
</g>
<g>
</g>
<g>
</g>
<g>
</g>
<g>
</g>
<g>
</g>
<g>
</g>
<g>
</g>
<g>
</g>
<g>
</g>
<g>
</g>
<g>
</g>
<g>
</g>
<g>
</g>
</svg>
